<?xml version="1.0" encoding="UTF-8" standalone="no"?>
<svg
   xmlns:dc="http://purl.org/dc/elements/1.1/"
   xmlns:cc="http://creativecommons.org/ns#"
   xmlns:rdf="http://www.w3.org/1999/02/22-rdf-syntax-ns#"
   xmlns:svg="http://www.w3.org/2000/svg"
   xmlns="http://www.w3.org/2000/svg"
   viewBox="0 0 1342.4532 668.12"
   height="668.12"
   width="1342.4532"
   xml:space="preserve"
   id="svg2"
   version="1.1"><metadata
     id="metadata8"><rdf:RDF><cc:Work
         rdf:about=""><dc:format>image/svg+xml</dc:format><dc:type
           rdf:resource="http://purl.org/dc/dcmitype/StillImage" /></cc:Work></rdf:RDF></metadata><defs
     id="defs6"><clipPath
       id="clipPath44"
       clipPathUnits="userSpaceOnUse"><path
         id="path42"
         d="m 8860.82,3626.32 c 63.49,-0.07 115.88,-43.33 127.45,-103.26 11.64,-60.28 -20.04,-120.59 -77.59,-142.1 -79.63,-29.77 -160.03,-57.48 -240.13,-86.02 -117.38,-41.83 -234.76,-83.63 -352.17,-125.38 -44.65,-15.88 -89.16,-32.21 -134.12,-47.2 -52.02,-17.35 -105.06,-1.47 -140.2,40.54 -32.64,39.03 -37.59,96.35 -11.57,143.2 14.73,26.53 36.37,45.93 65.2,56.2 165.25,58.86 330.57,117.54 495.86,176.27 74.14,26.34 148.27,52.67 222.41,78.98 15.27,5.42 30.72,10.02 44.86,8.77 z" /></clipPath><linearGradient
       id="linearGradient50"
       spreadMethod="pad"
       gradientTransform="matrix(1012.73,-1012.73,-1012.73,-1012.73,7659.68,4214.44)"
       gradientUnits="userSpaceOnUse"
       y2="0"
       x2="1"
       y1="0"
       x1="0"><stop
         id="stop46"
         offset="0"
         style="stop-opacity:1;stop-color:#2d47a3" /><stop
         id="stop48"
         offset="1"
         style="stop-opacity:1;stop-color:#4b85cd" /></linearGradient><clipPath
       id="clipPath60"
       clipPathUnits="userSpaceOnUse"><path
         id="path58"
         d="m 8990.56,4309.06 c 0.13,-55.8 -34.86,-103.3 -88.27,-122.23 -214.16,-75.91 -428.1,-152.4 -642.3,-228.18 -32.18,-11.39 -63.68,-25.22 -97.55,-31.39 -51.95,-9.47 -105.85,17.95 -132.22,66.99 -24.67,45.86 -16.26,107.37 18.78,144.84 17.26,18.45 38.17,30 61.54,38.26 142.34,50.36 284.65,100.84 426.96,151.28 94.87,33.62 189.51,67.88 284.68,100.61 62.32,21.44 128.23,-7 155.62,-64.95 8.39,-17.76 12.72,-36.47 12.76,-55.23 z" /></clipPath><linearGradient
       id="linearGradient66"
       spreadMethod="pad"
       gradientTransform="matrix(1012.73,-1012.73,-1012.73,-1012.73,8064.89,4619.65)"
       gradientUnits="userSpaceOnUse"
       y2="0"
       x2="1"
       y1="0"
       x1="0"><stop
         id="stop62"
         offset="0"
         style="stop-opacity:1;stop-color:#2d47a3" /><stop
         id="stop64"
         offset="1"
         style="stop-opacity:1;stop-color:#4b85cd" /></linearGradient><clipPath
       id="clipPath76"
       clipPathUnits="userSpaceOnUse"><path
         id="path74"
         d="m 8991.12,3903.43 c -0.54,-57.06 -38.31,-105.32 -92.45,-122.3 -44.18,-13.86 -87.21,-31.35 -130.87,-46.88 -135.81,-48.3 -271.69,-96.41 -407.53,-144.63 -55.74,-19.79 -111.57,-39.31 -167.13,-59.59 -91.13,-33.28 -180.08,29.26 -177.13,124.92 1.56,50.39 37.9,96.47 85.82,113.16 83.96,29.23 167.29,60.27 251.03,90.12 110.04,39.22 220.25,77.96 330.34,117.05 41.91,14.89 83.86,29.7 125.47,45.38 83.27,31.38 163.3,-10.75 180.07,-95.43 1.41,-7.15 1.62,-14.53 2.38,-21.8 z" /></clipPath><linearGradient
       id="linearGradient82"
       spreadMethod="pad"
       gradientTransform="matrix(1012.73,-1012.73,-1012.73,-1012.73,7862.25,4417.02)"
       gradientUnits="userSpaceOnUse"
       y2="0"
       x2="1"
       y1="0"
       x1="0"><stop
         id="stop78"
         offset="0"
         style="stop-opacity:1;stop-color:#2d47a3" /><stop
         id="stop80"
         offset="1"
         style="stop-opacity:1;stop-color:#4b85cd" /></linearGradient></defs><g
     transform="matrix(1.3333333,0,0,-1.3333333,0,668.12)"
     id="g10"><g
       transform="scale(0.1)"
       id="g12"><path
         id="path14"
         style="fill:#040606;fill-opacity:1;fill-rule:nonzero;stroke:none"
         d="M 2729.49,1351.24 H 2136.23 L 471.191,3082.2 2045.9,5010.91 h 568.85 L 1064.45,3101.73 Z M 471.191,5010.91 V 1351.24 H 0 v 3659.67 h 471.191" /><path
         id="path16"
         style="fill:#040606;fill-opacity:1;fill-rule:nonzero;stroke:none"
         d="m 5915.53,5010.91 h 468.75 V 1351.24 H 5915.53 V 2916.18 H 3740.23 V 1351.24 h -471.19 v 3659.67 h 471.19 V 3311.69 h 2175.3 v 1699.22" /><path
         id="path18"
         style="fill:#040606;fill-opacity:1;fill-rule:nonzero;stroke:none"
         d="M 7678.22,4620.29 V 2991.87 h 1054.69 c 255.51,0 458.56,66.3 609.13,198.97 150.53,132.64 225.83,334.05 225.83,604.25 0,61.84 -6.94,126.11 -20.75,192.87 -13.85,66.72 -39.9,138.74 -78.13,216.07 -38.26,77.28 -85.86,146.06 -142.82,206.29 -56.99,60.2 -133.89,110.25 -230.71,150.15 -96.86,39.87 -206.3,59.82 -328.37,59.82 z m 939.94,-2033.7 H 7678.22 V 1351.24 h -471.19 v 3659.67 h 1611.33 c 353.16,0 642.89,-113.52 869.14,-340.57 226.21,-227.05 339.4,-518.8 339.4,-875.25 0,-314.14 -80.23,-573.35 -240.52,-777.59 -160.34,-204.28 -379.64,-338.13 -657.96,-401.61 l 939.98,-1264.65 h -556.68 l -893.56,1235.35" /><path
         id="path20"
         style="fill:#040606;fill-opacity:1;fill-rule:nonzero;stroke:none"
         d="M 142.98,14.3008 H 54.8594 V 705.898 H 70.082 L 397.195,303.582 724.77,705.898 h 15.222 V 14.3008 H 653.258 V 479.371 L 397.195,158.711 142.98,479.371 V 14.3008" /><path
         id="path22"
         style="fill:#040606;fill-opacity:1;fill-rule:nonzero;stroke:none"
         d="M 1707.98,540.73 1557.11,220.082 h 300.36 z M 1457.92,14.3008 H 1357.8 l 340.03,691.5972 h 18.92 L 2056.78,14.3008 h -101.04 l -61.36,131.5002 h -375.1 L 1457.92,14.3008" /><path
         id="path24"
         style="fill:#040606;fill-opacity:1;fill-rule:nonzero;stroke:none"
         d="m 2771.01,632.082 v -307.73 h 199.31 c 48.29,0 86.66,12.527 115.12,37.597 28.44,25.063 42.67,63.133 42.67,114.192 0,11.691 -1.31,23.828 -3.92,36.441 -2.61,12.617 -7.54,26.219 -14.76,40.84 -7.23,14.598 -16.23,27.598 -26.99,38.976 -10.77,11.383 -25.3,20.844 -43.6,28.383 -18.31,7.528 -38.99,11.301 -62.06,11.301 z m 177.63,-384.32 H 2771.01 V 14.3008 h -89.04 V 705.898 h 304.5 c 66.74,0 121.49,-21.449 164.25,-64.359 42.75,-42.91 64.13,-98.039 64.13,-165.398 0,-59.36 -15.15,-108.352 -45.44,-146.95 -30.3,-38.609 -71.75,-63.902 -124.34,-75.902 L 3222.69,14.3008 H 3117.5 L 2948.64,247.762" /><path
         id="path26"
         style="fill:#040606;fill-opacity:1;fill-rule:nonzero;stroke:none"
         d="M 4400.61,14.3008 H 4288.5 l -314.66,327.1212 297.59,364.476 h 107.5 L 4085.96,345.109 Z M 3973.84,705.898 V 14.3008 H 3884.8 V 705.898 h 89.04" /><path
         id="path28"
         style="fill:#040606;fill-opacity:1;fill-rule:nonzero;stroke:none"
         d="m 5524.08,632.082 h -398.63 v -238.07 h 352.49 v -75.66 H 5125.45 V 89.9688 h 398.63 V 14.3008 H 5036.41 V 705.898 h 487.67 v -73.816" /><path
         id="path30"
         style="fill:#040606;fill-opacity:1;fill-rule:nonzero;stroke:none"
         d="M 6642.01,705.898 V 632.082 H 6432.09 V 14.3008 h -88.12 V 632.082 h -210.39 v 73.816 h 508.43" /><path
         id="path32"
         style="fill:#040606;fill-opacity:1;fill-rule:nonzero;stroke:none"
         d="M 7370.09,705.898 V 14.3008 h -89.04 V 705.898 h 89.04" /><path
         id="path34"
         style="fill:#040606;fill-opacity:1;fill-rule:nonzero;stroke:none"
         d="M 8667.96,705.898 V 14.3008 h -16.15 L 8171.98,511.199 V 14.3008 h -88.12 V 705.898 h 17.99 l 477.98,-493.207 v 493.207 h 88.13" /><path
         id="path36"
         style="fill:#040606;fill-opacity:1;fill-rule:nonzero;stroke:none"
         d="m 9668.24,0 c -49.82,0 -96.74,9.46094 -140.71,28.3789 -43.99,18.9102 -81.36,44.5234 -112.12,76.8121 -30.76,32.301 -55.06,70.508 -72.89,114.661 -17.85,44.128 -26.76,90.648 -26.76,139.558 0,48.602 9.37,95.121 28.14,139.559 18.76,44.441 43.91,82.742 75.44,114.89 31.52,32.133 69.12,57.743 112.8,76.813 43.67,19.078 89.35,28.609 137.03,28.609 55.05,0 107.04,-12.301 155.94,-36.91 48.91,-24.609 89.81,-57.98 122.73,-100.121 l -75.67,-48.441 c -24.91,32.293 -54.99,57.902 -90.2,76.82 -35.22,18.91 -72.82,28.371 -112.8,28.371 -47.38,0 -91.51,-12.918 -132.42,-38.75 -40.91,-25.84 -73.28,-60.211 -97.11,-103.121 -23.85,-42.91 -35.76,-88.809 -35.76,-137.719 0,-36.91 6.61,-72.359 19.84,-106.351 13.22,-33.989 31.21,-63.668 53.98,-89.039 22.75,-25.379 50.75,-45.68 83.97,-60.899 33.22,-15.2304 68.74,-22.8397 106.57,-22.8397 74.13,0 133.72,19.3789 178.79,58.1287 45.05,38.762 69.89,90.27 74.51,154.559 h -276.83 v 75.672 h 368.19 c 1.2,-18.461 0.6,-41.832 -1.9,-70.129 -3.6,-43.992 -13.8,-84.133 -30.41,-120.422 -16.61,-36.289 -39.07,-67.75 -67.36,-94.3478 C 9884.93,57.1289 9849.94,36.5195 9808.27,21.9219 9766.59,7.3125 9719.92,0 9668.24,0" /><g
         id="g38"><g
           clip-path="url(#clipPath44)"
           id="g40"><path
             id="path52"
             style="fill:url(#linearGradient50);fill-opacity:1;fill-rule:nonzero;stroke:none"
             d="m 8860.82,3626.32 c 63.49,-0.07 115.88,-43.33 127.45,-103.26 11.64,-60.28 -20.04,-120.59 -77.59,-142.1 -79.63,-29.77 -160.03,-57.48 -240.13,-86.02 -117.38,-41.83 -234.76,-83.63 -352.17,-125.38 -44.65,-15.88 -89.16,-32.21 -134.12,-47.2 -52.02,-17.35 -105.06,-1.47 -140.2,40.54 -32.64,39.03 -37.59,96.35 -11.57,143.2 14.73,26.53 36.37,45.93 65.2,56.2 165.25,58.86 330.57,117.54 495.86,176.27 74.14,26.34 148.27,52.67 222.41,78.98 15.27,5.42 30.72,10.02 44.86,8.77" /></g></g><g
         id="g54"><g
           clip-path="url(#clipPath60)"
           id="g56"><path
             id="path68"
             style="fill:url(#linearGradient66);fill-opacity:1;fill-rule:nonzero;stroke:none"
             d="m 8990.56,4309.06 c 0.13,-55.8 -34.86,-103.3 -88.27,-122.23 -214.16,-75.91 -428.1,-152.4 -642.3,-228.18 -32.18,-11.39 -63.68,-25.22 -97.55,-31.39 -51.95,-9.47 -105.85,17.95 -132.22,66.99 -24.67,45.86 -16.26,107.37 18.78,144.84 17.26,18.45 38.17,30 61.54,38.26 142.34,50.36 284.65,100.84 426.96,151.28 94.87,33.62 189.51,67.88 284.68,100.61 62.32,21.44 128.23,-7 155.62,-64.95 8.39,-17.76 12.72,-36.47 12.76,-55.23" /></g></g><g
         id="g70"><g
           clip-path="url(#clipPath76)"
           id="g72"><path
             id="path84"
             style="fill:url(#linearGradient82);fill-opacity:1;fill-rule:nonzero;stroke:none"
             d="m 8991.12,3903.43 c -0.54,-57.06 -38.31,-105.32 -92.45,-122.3 -44.18,-13.86 -87.21,-31.35 -130.87,-46.88 -135.81,-48.3 -271.69,-96.41 -407.53,-144.63 -55.74,-19.79 -111.57,-39.31 -167.13,-59.59 -91.13,-33.28 -180.08,29.26 -177.13,124.92 1.56,50.39 37.9,96.47 85.82,113.16 83.96,29.23 167.29,60.27 251.03,90.12 110.04,39.22 220.25,77.96 330.34,117.05 41.91,14.89 83.86,29.7 125.47,45.38 83.27,31.38 163.3,-10.75 180.07,-95.43 1.41,-7.15 1.62,-14.53 2.38,-21.8" /></g></g></g></g></svg>